{
	"asset":{
		"generator":"Khronos glTF Blender I/O v5.1.20",
		"version":"2.0"
	},
	"scene":0,
	"scenes":[
		{
			"name":"Scene",
			"nodes":[
				15
			]
		}
	],
	"nodes":[
		{
			"name":"LeftArm",
			"rotation":[
				-0.09773337841033936,
				-6.588072101743059e-12,
				-1.6311085460074537e-07,
				0.9952126741409302
			],
			"translation":[
				5.111505023500801e-14,
				0.693437933921814,
				-1.341104507446289e-07
			]
		},
		{
			"children":[
				0
			],
			"name":"LeftShoulder",
			"rotation":[
				0.7581139206886292,
				4.6643847895211366e-07,
				7.22998834135069e-07,
				0.6521221995353699
			],
			"translation":[
				-3.4155603040360717e-16,
				0.3770957887172699,
				2.7939677238464355e-09
			]
		},
		{
			"name":"RightArm",
			"rotation":[
				0.12190265953540802,
				-6.375821975956354e-15,
				2.906385709877668e-08,
				0.992542028427124
			],
			"scale":[
				1,
				0.9999999403953552,
				1
			],
			"translation":[
				1.0427607467279089e-14,
				0.6923733949661255,
				-4.470348358154297e-08
			]
		},
		{
			"children":[
				2
			],
			"name":"RightShoulder",
			"rotation":[
				-0.7815302014350891,
				4.545843292313697e-15,
				-1.8633132015111187e-07,
				0.6238674521446228
			],
			"translation":[
				-3.4155603040360717e-16,
				0.3770957887172699,
				2.7939677238464355e-09
			]
		},
		{
			"name":"Head",
			"rotation":[
				-0.019759899005293846,
				3.563817857222531e-15,
				-4.711127044032537e-09,
				0.9998047947883606
			],
			"translation":[
				-3.4155603040360717e-16,
				0.3770957887172699,
				2.7939677238464355e-09
			]
		},
		{
			"children":[
				1,
				3,
				4
			],
			"name":"Chest",
			"rotation":[
				0.016478631645441055,
				-3.549726193595535e-15,
				3.928812386533309e-09,
				0.9998642206192017
			],
			"scale":[
				1,
				0.9999999403953552,
				0.9999998807907104
			],
			"translation":[
				-2.28672320099941e-16,
				0.4701513648033142,
				9.313225746154785e-10
			]
		},
		{
			"children":[
				5
			],
			"name":"Spine",
			"rotation":[
				-0.004716823808848858,
				3.552969906267045e-15,
				-1.1245784303781647e-09,
				0.9999889135360718
			],
			"scale":[
				1,
				0.9999999403953552,
				0.9999999403953552
			],
			"translation":[
				0,
				0.547610342502594,
				0
			]
		},
		{
			"children":[
				6
			],
			"name":"Hips",
			"rotation":[
				0,
				1.1920928955078125e-07,
				0,
				1
			],
			"translation":[
				0,
				-0.062092721462249756,
				0
			]
		},
		{
			"name":"LowerLeftLeg",
			"rotation":[
				-0.0001870682608569041,
				2.2801205368239152e-14,
				-7.28766838542505e-11,
				1
			],
			"scale":[
				1,
				0.9999999403953552,
				1
			],
			"translation":[
				1.0933328488437269e-14,
				0.354533851146698,
				-4.0978193283081055e-08
			]
		},
		{
			"children":[
				8
			],
			"name":"LeftLeg",
			"rotation":[
				-0.48034733533859253,
				-3.2404983508821025e-14,
				-1.870542405413289e-07,
				0.8770783543586731
			],
			"scale":[
				1,
				1,
				0.9999999403953552
			],
			"translation":[
				-7.105427357601002e-15,
				0.31326737999916077,
				1.4901161193847656e-08
			]
		},
		{
			"children":[
				9
			],
			"name":"LeftHip",
			"rotation":[
				1.6870139063485112e-07,
				-0.49928757548332214,
				-0.8664363026618958,
				9.721490101810559e-08
			],
			"scale":[
				1,
				1.000000238418579,
				1.0000008344650269
			],
			"translation":[
				0,
				-0.062092721462249756,
				0
			]
		},
		{
			"name":"LowerRightLeg",
			"rotation":[
				-0.02939649298787117,
				3.3043415958089115e-15,
				-7.00866964464808e-09,
				0.9995678067207336
			],
			"scale":[
				1,
				0.9999999403953552,
				1
			],
			"translation":[
				-5.355855499937945e-17,
				0.3274080157279968,
				-3.725290298461914e-09
			]
		},
		{
			"children":[
				11
			],
			"name":"RightLeg",
			"rotation":[
				-0.458915650844574,
				1.0591504207013713e-07,
				-5.470701225362973e-08,
				0.8884798288345337
			],
			"translation":[
				-4.1359030627651384e-25,
				0.3523196578025818,
				-3.725290298461914e-09
			]
		},
		{
			"children":[
				12
			],
			"name":"RightHip",
			"rotation":[
				-0.8705689907073975,
				4.202445110833599e-17,
				4.202444449089109e-17,
				0.49204638600349426
			],
			"scale":[
				1,
				0.9999998807907104,
				1
			],
			"translation":[
				0,
				-0.062092721462249756,
				0
			]
		},
		{
			"mesh":0,
			"name":"Cone",
			"skin":0
		},
		{
			"children":[
				14,
				7,
				10,
				13
			],
			"name":"Armature"
		}
	],
	"materials":[
		{
			"doubleSided":true,
			"name":"Material",
			"pbrMetallicRoughness":{
				"baseColorTexture":{
					"index":0
				},
				"metallicFactor":0,
				"roughnessFactor":0.5
			}
		},
		{
			"doubleSided":true,
			"name":"Material.003",
			"pbrMetallicRoughness":{
				"baseColorTexture":{
					"index":1
				},
				"metallicFactor":0,
				"roughnessFactor":0.5
			}
		}
	],
	"meshes":[
		{
			"name":"Cone",
			"primitives":[
				{
					"attributes":{
						"POSITION":0,
						"NORMAL":1,
						"TEXCOORD_0":2,
						"JOINTS_0":3,
						"WEIGHTS_0":4
					},
					"indices":5,
					"material":0
				},
				{
					"attributes":{
						"POSITION":6,
						"NORMAL":7,
						"TEXCOORD_0":8,
						"JOINTS_0":9,
						"WEIGHTS_0":10
					},
					"indices":11,
					"material":1
				}
			]
		}
	],
	"textures":[
		{
			"sampler":0,
			"source":0
		},
		{
			"sampler":0,
			"source":1
		}
	],
	"images":[
		{
			"mimeType":"image/png",
			"name":"CHAR1_BodyRemakePurple",
			"uri":"CHAR1_BodyRemakePurple.png"
		},
		{
			"mimeType":"image/png",
			"name":"CHAR1_hat",
			"uri":"CHAR1_hat.png"
		}
	],
	"skins":[
		{
			"inverseBindMatrices":12,
			"joints":[
				7,
				6,
				5,
				1,
				0,
				3,
				2,
				4,
				10,
				9,
				8,
				13,
				12,
				11
			],
			"name":"Armature"
		}
	],
	"accessors":[
		{
			"bufferView":0,
			"componentType":5126,
			"count":6929,
			"max":[
				0.987420916557312,
				3.66274356842041,
				1.8555512428283691
			],
			"min":[
				-0.9497683644294739,
				-0.9845895767211914,
				-1.8824176788330078
			],
			"type":"VEC3"
		},
		{
			"bufferView":1,
			"componentType":5126,
			"count":6929,
			"type":"VEC3"
		},
		{
			"bufferView":2,
			"componentType":5126,
			"count":6929,
			"type":"VEC2"
		},
		{
			"bufferView":3,
			"componentType":5121,
			"count":6929,
			"type":"VEC4"
		},
		{
			"bufferView":4,
			"componentType":5126,
			"count":6929,
			"type":"VEC4"
		},
		{
			"bufferView":5,
			"componentType":5123,
			"count":9357,
			"type":"SCALAR"
		},
		{
			"bufferView":6,
			"componentType":5126,
			"count":318,
			"max":[
				0.6979825496673584,
				4.997375965118408,
				1.2724666595458984
			],
			"min":[
				-1.4193217754364014,
				1.489766001701355,
				-1.2812432050704956
			],
			"type":"VEC3"
		},
		{
			"bufferView":7,
			"componentType":5126,
			"count":318,
			"type":"VEC3"
		},
		{
			"bufferView":8,
			"componentType":5126,
			"count":318,
			"type":"VEC2"
		},
		{
			"bufferView":9,
			"componentType":5121,
			"count":318,
			"type":"VEC4"
		},
		{
			"bufferView":10,
			"componentType":5126,
			"count":318,
			"type":"VEC4"
		},
		{
			"bufferView":11,
			"componentType":5123,
			"count":552,
			"type":"SCALAR"
		},
		{
			"bufferView":12,
			"componentType":5126,
			"count":14,
			"type":"MAT4"
		}
	],
	"bufferViews":[
		{
			"buffer":0,
			"byteLength":83148,
			"byteOffset":0,
			"target":34962
		},
		{
			"buffer":0,
			"byteLength":83148,
			"byteOffset":83148,
			"target":34962
		},
		{
			"buffer":0,
			"byteLength":55432,
			"byteOffset":166296,
			"target":34962
		},
		{
			"buffer":0,
			"byteLength":27716,
			"byteOffset":221728,
			"target":34962
		},
		{
			"buffer":0,
			"byteLength":110864,
			"byteOffset":249444,
			"target":34962
		},
		{
			"buffer":0,
			"byteLength":18714,
			"byteOffset":360308,
			"target":34963
		},
		{
			"buffer":0,
			"byteLength":3816,
			"byteOffset":379024,
			"target":34962
		},
		{
			"buffer":0,
			"byteLength":3816,
			"byteOffset":382840,
			"target":34962
		},
		{
			"buffer":0,
			"byteLength":2544,
			"byteOffset":386656,
			"target":34962
		},
		{
			"buffer":0,
			"byteLength":1272,
			"byteOffset":389200,
			"target":34962
		},
		{
			"buffer":0,
			"byteLength":5088,
			"byteOffset":390472,
			"target":34962
		},
		{
			"buffer":0,
			"byteLength":1104,
			"byteOffset":395560,
			"target":34963
		},
		{
			"buffer":0,
			"byteLength":896,
			"byteOffset":396664
		}
	],
	"samplers":[
		{
			"magFilter":9729,
			"minFilter":9987
		}
	],
	"buffers":[
		{
			"byteLength":397560,
			"uri":"CHAR2.bin"
		}
	]
}
